<?xml version="1.0" standalone="no"?>
<!DOCTYPE svg PUBLIC "-//W3C//DTD SVG 1.1//EN" "http://www.w3.org/Graphics/SVG/1.1/DTD/svg11.dtd" >
<svg xmlns="http://www.w3.org/2000/svg">
<metadata>
Created by FontForge 20120731 at Wed Jan  6 14:43:07 2016
 By Ads
</metadata>
<defs>
<font id="iconfont" horiz-adv-x="1024" >
  <font-face 
    font-family="iconfont"
    font-weight="500"
    font-stretch="normal"
    units-per-em="1024"
    panose-1="2 0 6 3 0 0 0 0 0 0"
    ascent="896"
    descent="-128"
    x-height="792"
    bbox="34 -31 966 801"
    underline-thickness="50"
    underline-position="-100"
    unicode-range="U+0078-E616"
  />
<missing-glyph horiz-adv-x="374" 
d="M34 0v682h272v-682h-272zM68 34h204v614h-204v-614z" />
    <glyph glyph-name=".notdef" horiz-adv-x="374" 
d="M34 0v682h272v-682h-272zM68 34h204v614h-204v-614z" />
    <glyph glyph-name=".null" horiz-adv-x="0" 
 />
    <glyph glyph-name="nonmarkingreturn" horiz-adv-x="341" 
 />
    <glyph glyph-name="x" unicode="x" horiz-adv-x="1001" 
d="M281 543q-27 -1 -53 -1h-83q-18 0 -36.5 -6t-32.5 -18.5t-23 -32t-9 -45.5v-76h912v41q0 16 -0.5 30t-0.5 18q0 13 -5 29t-17 29.5t-31.5 22.5t-49.5 9h-133v-97h-438v97zM955 310v-52q0 -23 0.5 -52t0.5 -58t-10.5 -47.5t-26 -30t-33 -16t-31.5 -4.5q-14 -1 -29.5 -0.5
t-29.5 0.5h-32l-45 128h-439l-44 -128h-29h-34q-20 0 -45 1q-25 0 -41 9.5t-25.5 23t-13.5 29.5t-4 30v167h911zM163 247q-12 0 -21 -8.5t-9 -21.5t9 -21.5t21 -8.5q13 0 22 8.5t9 21.5t-9 21.5t-22 8.5zM316 123q-8 -26 -14 -48q-5 -19 -10.5 -37t-7.5 -25t-3 -15t1 -14.5
t9.5 -10.5t21.5 -4h37h67h81h80h64h36q23 0 34 12t2 38q-5 13 -9.5 30.5t-9.5 34.5q-5 19 -11 39h-368zM336 498v228q0 11 2.5 23t10 21.5t20.5 15.5t34 6h188q31 0 51.5 -14.5t20.5 -52.5v-227h-327z" />
    <glyph glyph-name="uniE600" unicode="&#xe600;" 
d="M512 780l153 -162l25 -26v36v129h76v-240v-5l4 -5l163 -171h-97h-14v-15v-274h-234v172v15h-14h-124h-15v-15v-172h-233v274v15h-15h-96zM512 801l-454 -480h129v-274q0 -4 2 -7t4.5 -5t6.5 -2h237q5 0 9 4t4 10v172h124v-172q0 -6 3.5 -10t8.5 -4h238q5 0 8.5 4t3.5 10
v274h130l-186 196v242q0 5 -3.5 8.5t-8.5 3.5h-80q-5 0 -9 -3.5t-4 -8.5v-131zM512 780l153 -162l25 -26v36v129h76v-240v-5l4 -5l163 -171h-97h-14v-15v-274h-234v172v15h-14h-124h-15v-15v-172h-233v274v15h-15h-96zM512 801l-454 -480h129v-274q0 -4 2 -7t4.5 -5t6.5 -2
h237q5 0 9 4t4 10v172h124v-172q0 -6 3.5 -10t8.5 -4h238q5 0 8.5 4t3.5 10v274h130l-186 196v242q0 5 -3.5 8.5t-8.5 3.5h-80q-5 0 -9 -3.5t-4 -8.5v-131z" />
    <glyph glyph-name="uniE601" unicode="&#xe601;" 
d="M780 517v242q0 5 -3.5 8.5t-8.5 3.5h-80q-5 0 -9 -3.5t-4 -8.5v-131l-163 173l-454 -480h129v-274q0 -4 2 -7t4.5 -5t6.5 -2h237q4 0 6.5 2t4.5 5t2 7v172h124v-172q0 -6 3.5 -10t8.5 -4h238q5 0 8.5 4t3.5 10v274h130zM780 517v242q0 5 -3.5 8.5t-8.5 3.5h-80
q-5 0 -9 -3.5t-4 -8.5v-131l-163 173l-454 -480h129v-274q0 -4 2 -7t4.5 -5t6.5 -2h237q4 0 6.5 2t4.5 5t2 7v172h124v-172q0 -6 3.5 -10t8.5 -4h238q5 0 8.5 4t3.5 10v274h130z" />
    <glyph glyph-name="uniE602" unicode="&#xe602;" 
d="M572 751v-418h-492v418h492zM573 765h-494q-4 0 -7 -1.5t-4.5 -4.5t-1.5 -6v-422q0 -3 1.5 -6t4.5 -4.5t7 -1.5h494q5 0 9 3.5t4 8.5v422q0 2 -1 4.5t-3 4t-4 2.5t-5 1zM947 263v-89h-870v89h870zM948 277h-872q-13 0 -13 -10v-98q0 -10 13 -10h872q6 0 9.5 3t3.5 7v98
q0 2 -0.5 3.5t-1.5 2.5t-3 2t-3.5 1.5t-4.5 0.5zM806 589l141 -134v-122h-295v256h154zM812 603h-175v-284h324v142zM356 103q-5 -24 -24 -39.5t-44 -15.5q-29 0 -49 20q-15 15 -19 35h136zM372 117h-168q0 -35 24.5 -59.5t59.5 -24.5q11 0 22 3t20.5 8.5t17 13.5t13 17
t8.5 20t3 22zM777 103q-2 -12 -8.5 -22t-15.5 -17.5t-20.5 -11.5t-23.5 -4q-25 0 -44.5 15.5t-24.5 39.5h137zM793 117h-168q0 -23 11 -42t30.5 -30.5t42.5 -11.5q35 0 59.5 24.5t24.5 59.5z" />
    <glyph glyph-name="uniE603" unicode="&#xe603;" 
d="M586 331q0 -5 -4 -8.5t-9 -3.5h-494q-5 0 -9 3.5t-4 8.5v422q0 5 4 8.5t9 3.5h494q5 0 9 -3.5t4 -8.5v-422zM961 169q0 -4 -3.5 -7t-9.5 -3h-872q-6 0 -9.5 3t-3.5 7v98q0 10 13 10h872q4 0 7 -1.5t4.5 -3.5t1.5 -5v-98zM637 603v-284h324v142l-149 142h-175zM288 33
q35 0 59.5 24.5t24.5 59.5h-168q0 -48 42 -72q19 -12 42 -12zM709 33q35 0 59.5 24.5t24.5 59.5h-168q0 -35 24.5 -59.5t59.5 -24.5z" />
    <glyph glyph-name="uniE604" unicode="&#xe604;" 
d="M534 785q75 0 144 -26q33 -12 62.5 -29t54.5 -39q51 -44 79 -101q14 -30 21 -60.5t7 -62.5q0 -128 -102 -220q-48 -44 -112 -69q-66 -26 -138 -29h-4l-3 -2q-74 -41 -122 -66q-9 -5 -17.5 -9.5t-15 -7.5t-11.5 -5q7 18 10.5 44t3.5 61v9l-9 4q-98 38 -157 116
q-60 79 -60 174q0 64 29 123q28 57 79 101t117 68q69 26 144 26zM534 799q-78 0 -149 -26.5t-122 -71t-81.5 -106t-30.5 -128.5q0 -100 62 -182t164 -121q-1 -43 -6.5 -75t-19.5 -46q-9 -10 -2 -10q21 0 201 102q101 4 185 49t133 120t49 163q0 34 -8 66.5t-22.5 62
t-35.5 56.5t-46.5 49.5t-56.5 40.5t-65 30.5t-72 19.5t-77 7zM367 422h290v-14h-290v14zM330 534h364v-15h-364v15z" />
    <glyph glyph-name="uniE605" unicode="&#xe605;" 
d="M528 134q-227 -128 -202 -95q1 2 3 3q25 28 26 121q-102 40 -164 121.5t-62 181.5q0 90 51.5 166.5t139.5 121t192 44.5q62 0 120.5 -16.5t105.5 -47.5t82.5 -71.5t55 -91.5t19.5 -105q0 -88 -49 -163t-133 -120t-185 -49zM672 547h-310q-12 0 -20 -7.5t-8 -17.5t8 -17.5
t20 -7.5h310q11 0 19 7.5t8 17.5t-8 17.5t-19 7.5zM635 430h-237q-11 0 -19 -7.5t-8 -17.5q0 -7 3.5 -13t10 -9t13.5 -3h237q11 0 19 7t8 18q0 3 -1 6.5t-2.5 6t-4 5t-5.5 4t-6.5 2.5t-7.5 1z" />
    <glyph glyph-name="uniE606" unicode="&#xe606;" 
d="M512 401q75 0 144 -24q33 -12 62.5 -29t54.5 -38.5t45 -46.5t33 -52q15 -29 22 -59t7 -61v-7q0 -4 -0.5 -7.5t-0.5 -7t-0.5 -7t-1 -7.5t-1.5 -7h-728q-4 22 -4 43q0 31 7 61t22 59q27 55 78 98q51 44 117 68q34 12 70.5 18t73.5 6zM512 416q-104 0 -192 -43.5
t-139 -118.5t-51 -163q0 -28 6 -58h752q3 15 4.5 29t1.5 29q0 53 -19 102.5t-54.5 89.5t-82.5 70t-105.5 46.5t-120.5 16.5zM512 782q20 0 39 -5t36 -14.5t31 -23.5q21 -22 32 -49t11 -57t-11 -57.5t-32 -48.5q-44 -44 -106 -44t-106 44q-21 21 -32 48.5t-11 57.5
q0 62 43 106q21 21 48.5 32t57.5 11zM512 797q-68 0 -116 -48t-48 -116q0 -45 22 -82.5t60 -59.5t82 -22t82 22t60 59.5t22 82.5q0 68 -48 116t-116 48z" />
    <glyph glyph-name="uniE607" unicode="&#xe607;" 
d="M136 33q-6 30 -6 58q0 88 51 163t139 118.5t192 43.5q78 0 148.5 -26t122 -69.5t81.5 -103.5t30 -126q0 -28 -6 -58h-752zM512 797q68 0 116 -48t48 -116q0 -45 -22 -82.5t-60 -59.5t-82 -22q-68 0 -116 48t-48 116t48 116t116 48z" />
    <glyph glyph-name="uniE608" unicode="&#xe608;" 
d="M853 614q19 0 32 -13.5t13 -31.5v-474q0 -18 -13 -31t-32 -13h-682q-12 0 -22.5 6t-16.5 16t-6 22v474q0 18 13 31.5t32 13.5h682zM853 628h-682q-10 0 -19 -3t-16 -8.5t-12.5 -12.5t-8.5 -16.5t-3 -18.5v-474q0 -24 17 -41.5t42 -17.5h682q25 0 42 17.5t17 41.5v474
q0 9 -3 18.5t-8.5 16.5t-12.5 12.5t-16 8.5t-19 3zM551 499q14 0 24 -10t10 -24v-266q0 -4 -1.5 -8.5t-3.5 -8.5t-5 -7t-7 -5t-8.5 -3.5t-8.5 -1.5h-266q-9 0 -17 4.5t-12.5 12.5t-4.5 17v266q0 14 10 24t24 10h266zM551 513h-266q-20 0 -34.5 -14t-14.5 -34v-266
q0 -13 6.5 -24t18 -17.5t24.5 -6.5h266q20 0 34 14t14 34v266q0 13 -6.5 24.5t-17.5 17.5t-24 6zM744 468q13 0 23.5 -6t17 -17t6.5 -23q0 -20 -13.5 -33.5t-33.5 -13.5q-13 0 -23.5 6t-17 17t-6.5 24q0 19 14 32.5t33 13.5zM744 483q-16 0 -30.5 -8.5t-22.5 -22.5t-8 -30
q0 -26 18 -44t43 -18t43 18t18 43.5t-18 43.5t-43 18zM629 616h-3q-1 0 -2 1q-5 4 -1 10l125 171q2 2 4.5 2.5t5 -1t3 -4.5t-1.5 -5l-125 -172q-2 -2 -5 -2zM523 616l-6 2l-115 137q-2 2 -2 3.5t0.5 3.5t1.5 3q6 5 11 -1l115 -137q5 -5 -1 -10q-2 -1 -4 -1zM683 243h115v-14
h-115v14zM683 202h115v-14h-115v14z" />
    <glyph glyph-name="uniE609" unicode="&#xe609;" 
d="M295 711h434v-15h-434v15zM702 782q6 0 10.5 -3t7 -7.5t2.5 -10.5v-693q0 -8 -5.5 -14t-14.5 -6h-380q-4 0 -7 1t-5.5 2.5t-4 4t-2.5 6t-1 6.5v693q0 5 1.5 8.5t4 6.5t6.5 4.5t8 1.5h380zM702 796h-380q-15 0 -25 -10t-10 -25v-693q0 -5 1.5 -9.5t3.5 -8t5.5 -7t7 -5.5
t8 -3.5t9.5 -1.5h380q10 0 18 5t12.5 13t4.5 17v693q0 10 -4.5 18t-12.5 12.5t-18 4.5zM295 228h434v-15h-434v15zM432 134h160v-14h-160v14z" />
    <glyph glyph-name="uniE60A" unicode="&#xe60a;" 
d="M910 784q5 0 9.5 -2.5t6.5 -6.5t2 -9v-586q-3 -16 -18 -18h-796q-5 0 -9.5 2t-6.5 6.5t-2 9.5v586q0 7 5 12.5t13 5.5h796zM910 798h-796q-4 0 -7.5 -1t-7 -2.5t-6 -3.5t-5 -5t-4 -6t-2.5 -7t-1 -7v-586q0 -14 9.5 -23.5t23.5 -9.5h796q9 0 16.5 4.5t12 12t4.5 16.5v586
q0 13 -9.5 22.5t-23.5 9.5zM305 48h414v-14h-414v14zM81 330h854v-14h-854v14z" />
    <glyph glyph-name="uniE60B" unicode="&#xe60b;" 
d="M791 781q10 -1 11 -11v-710q0 -2 -0.5 -4t-2 -3.5t-4 -2.5t-4.5 -1h-559q-3 0 -5.5 1.5t-4 4t-1.5 5.5v710q0 5 3 8t8 3h559zM791 796h-559q-5 0 -10 -2.5t-8.5 -5.5t-5.5 -8t-2 -10v-710q0 -6 3.5 -12t9.5 -9.5t13 -3.5h559q11 0 18.5 7.5t7.5 17.5v710q0 11 -7.5 18.5
t-18.5 7.5zM511 499q58 0 99 -40.5t41 -98t-41 -98t-98.5 -40.5t-98.5 40.5t-41 98t41 98.5q8 8 17 14t18.5 11t20 8.5t21 5t21.5 1.5zM511 514q-41 0 -76.5 -20.5t-56 -56t-20.5 -77.5q0 -63 45 -108t108 -45q42 0 77.5 20.5t56 56t20.5 77t-20.5 77t-56 56t-77.5 20.5z
M213 684h594v-14h-594v14zM328 789h15v-112h-15v112zM376 789h14v-112h-14v112z" />
    <glyph glyph-name="uniE60C" unicode="&#xe60c;" 
d="M851 576q14 0 17 -14l56 -231q1 -6 -1 -11l-51 -117q-2 -5 -6.5 -8t-9.5 -3h-688q-11 0 -16 11l-51 117q-2 5 -1 11l56 231q3 14 17 14h678zM851 590h-678q-12 0 -20.5 -7t-10.5 -17l-55 -232q-3 -10 1 -20l51 -117q4 -9 12 -14t17 -5h688q9 0 17 5t12 14l51 117
q4 10 1 20l-55 232q-1 7 -5.5 12.5t-11 8.5t-14.5 3zM176 331h420v-15h-420v15zM724 331h108v-15h-108v15z" />
    <glyph glyph-name="uniE60D" unicode="&#xe60d;" 
d="M740 783q5 0 8 -3.5t3 -7.5v-712q0 -11 -11 -11h-456q-10 1 -11 11v712q0 4 3 7.5t8 3.5h456zM740 797h-456q-5 0 -8.5 -1t-7 -3.5t-5.5 -5.5t-3.5 -7t-1.5 -8v-712q0 -11 7.5 -18.5t18.5 -7.5h456q4 0 7 1t6 2.5t5.5 4t4 5.5t2.5 6t1 7v712q0 7 -3.5 12.5t-9.5 9
t-13 3.5zM266 520h492v-14h-492v14zM378 707h14v-114h-14v114zM378 421h14v-160h-14v160z" />
    <glyph glyph-name="uniE60E" unicode="&#xe60e;" 
d="M853 614q19 0 32 -13.5t13 -31.5v-474q0 -18 -13 -31t-32 -13h-682q-12 0 -22.5 6t-16.5 16t-6 22v474q0 18 13 31.5t32 13.5h682zM853 628h-682q-10 0 -19 -3t-16 -8.5t-12.5 -12.5t-8.5 -16.5t-3 -18.5v-474q0 -24 17 -41.5t42 -17.5h682q25 0 42 17.5t17 41.5v474
q0 9 -3 18.5t-8.5 16.5t-12.5 12.5t-16 8.5t-19 3zM551 499q14 0 24 -10t10 -24v-266q0 -4 -1.5 -8.5t-3.5 -8.5t-5 -7t-7 -5t-8.5 -3.5t-8.5 -1.5h-266q-9 0 -17 4.5t-12.5 12.5t-4.5 17v266q0 14 10 24t24 10h266zM551 513h-266q-20 0 -34.5 -14t-14.5 -34v-266
q0 -13 6.5 -24t18 -17.5t24.5 -6.5h266q20 0 34 14t14 34v266q0 13 -6.5 24.5t-17.5 17.5t-24 6zM744 468q13 0 23.5 -6t17 -17t6.5 -23q0 -20 -13.5 -33.5t-33.5 -13.5q-13 0 -23.5 6t-17 17t-6.5 24q0 19 14 32.5t33 13.5zM744 483q-16 0 -30.5 -8.5t-22.5 -22.5t-8 -30
q0 -26 18 -44t43 -18t43 18t18 43.5t-18 43.5t-43 18zM629 616h-3q-1 0 -2 1q-5 4 -1 10l125 171q2 2 4.5 2.5t5 -1t3 -4.5t-1.5 -5l-125 -172q-2 -2 -5 -2zM523 616l-6 2l-115 137q-2 2 -2 3.5t0.5 3.5t1.5 3q6 5 11 -1l115 -137q5 -5 -1 -10q-2 -1 -4 -1zM683 243h115v-14
h-115v14zM683 202h115v-14h-115v14z" />
    <glyph glyph-name="uniE60F" unicode="&#xe60f;" 
d="M708 777h62q49 -16 75 -31q22 -13 36 -29t21 -36q8 -23 7 -51.5t-11 -62.5t-30 -73t-48 -83h-2q-4 0 -16 2q-13 2 -19 2q-4 0 -7 -0.5t-5.5 -1.5t-5.5 -2q-17 -10 -32 -26.5t-29 -43t-22 -45t-23 -54.5q-30 -76 -50 -111q-29 -52 -63 -80q-5 4 -11 14.5t-13 31.5
q-4 11 -7.5 22.5t-5 17.5t-2.5 11v279q0 6 -5 10q-4 4 -10 4h-1q-85 -10 -159 -10q-63 0 -87 9q-31 12 -53 50q-25 44 -27 107q-2 50 18 88q27 51 88 64q35 7 87 13t119 9q31 2 64 3t63.5 1.5t55 1t48.5 0.5zM708 791q-57 0 -113.5 -1t-117.5 -4t-116 -9t-93 -14
q-36 -8 -61.5 -27.5t-36.5 -45t-15.5 -48t-3.5 -46.5q2 -66 27.5 -111t61.5 -58q26 -10 92 -10q21 0 45 1t43.5 2.5t36.5 3t26 2.5l9 1v-280q25 -111 56 -113q28 21 51.5 54t38.5 68l32 74q16 38 29.5 70t32.5 59t40 40q2 0 4 1h2q2 1 5 1t8 -0.5t9 -1.5t9 -1.5t9 -0.5
q3 0 5.5 0.5t4.5 1.5q34 50 55 94t31 77.5t9 62.5t-6 48.5t-20 37.5t-27 28t-33.5 20t-33 14t-31.5 10h-8h-8h-10h-9h-9h-10h-10zM252 682q9 0 16 -6t11 -14q15 -24 15 -58.5t-15 -58.5q-4 -8 -11 -14.5t-16 -6.5q-15 0 -28 21q-14 24 -14 58q0 17 4 32t10 27q13 20 28 20z
M252 696q-23 0 -39.5 -27t-16.5 -65.5t16.5 -66t39.5 -27.5q15 0 28 12.5t20.5 34t7.5 46.5q0 39 -16.5 66t-39.5 27z" />
    <glyph glyph-name="uniE610" unicode="&#xe610;" 
d="M918 372q9 0 9 -9v-115q0 -3 -3 -5.5t-6 -2.5h-781q-2 0 -4 1t-3 3t-1 4v115q0 9 8 9h781zM918 386h-781q-4 0 -7.5 -1t-6 -3.5t-4.5 -5t-3.5 -6t-1.5 -7.5v-115q0 -4 2 -8.5t5 -7.5t7 -5t9 -2h781q6 0 11.5 3t8.5 8.5t3 11.5v115q0 5 -2 9t-5 7t-7 5t-9 2zM609 661
q3 0 4.5 -2t1.5 -4v-102q0 -3 -1.5 -5t-4.5 -2h-163q-3 0 -4.5 2t-1.5 5v102q1 5 6 6h163zM609 675h-163q-3 0 -5.5 -0.5t-5 -2t-4.5 -3.5t-3 -4t-2 -5t-1 -5v-102q0 -9 6 -15t15 -6h163q9 0 15 6t6 15v102q0 3 -1 6t-3 5.5t-4.5 4.5t-5.5 3t-7 1zM440 552l10 -11l-183 -170
l-9 11zM618 557l173 -180l-10 -10l-174 180zM312 24l-12 9l5 5q47 64 39 119q-2 19 -12.5 36.5t-16 23t-9.5 8.5l-6 4l9 12l6 -5q4 -3 10.5 -9t18 -26t15.5 -42q9 -61 -43 -129zM516 24l-11 9l4 5q48 64 40 119q-3 19 -13.5 36.5t-16 23t-9.5 8.5l-5 4l8 12l6 -5
q4 -3 10.5 -9t18.5 -26t15 -42q9 -61 -43 -129zM731 24l-12 9l5 5q47 64 39 119q-2 19 -12.5 36.5t-16 23t-9.5 8.5l-6 4l9 12l6 -5q1 0 2.5 -1.5t5 -5.5t7.5 -8t8.5 -11t8.5 -14t7 -17t4 -20q10 -61 -42 -129z" />
    <glyph glyph-name="uniE611" unicode="&#xe611;" 
d="M736 593q25 0 48.5 -6t44.5 -18.5t38 -29.5q54 -54 54 -130v-50q0 -76 -54 -130q-26 -26 -60 -40t-71 -14h-448q-77 0 -131 54t-54 130v50q0 76 54 130t131 54h448zM736 607h-448q-83 0 -141.5 -58t-58.5 -140v-50q0 -82 58.5 -140t141.5 -58h448q83 0 141.5 58t58.5 140
v50q0 32 -10.5 62.5t-28.5 55t-42.5 42.5t-55 28t-63.5 10zM721.5 496q12.5 0 23 -6.5t17 -17t6.5 -23.5q0 -7 -2.5 -14t-6.5 -13t-10 -10t-13 -6.5t-15 -2.5q-19 0 -32.5 13.5t-13.5 32.5q0 13 6 23.5t17 17t23.5 6.5zM721 510q-25 0 -43 -17.5t-18 -43.5q0 -16 8.5 -30
t22.5 -22t30 -8q26 0 43.5 17.5t17.5 42.5q0 13 -4.5 24t-13 19t-19.5 13t-24 5zM613 280q8 0 8 -8v-89q-2 -7 -8 -8h-202q-8 0 -8 8v89q0 8 8 8h202zM613 294h-202q-6 0 -11 -3t-8 -8t-3 -11v-89q0 -9 6.5 -15.5t15.5 -6.5h202q9 0 15.5 6.5t6.5 15.5v89q0 9 -6.5 15.5
t-15.5 6.5z" />
    <glyph glyph-name="uniE612" unicode="&#xe612;" 
d="M457 197h201v-15h-201v15zM457 147h201v-14h-201v14zM785 530h-441v233h441v-233zM359 544h412v205h-412v-205zM785 35h-441v264l441 1v-265zM359 50h412v235l-412 -1v-234zM785 35h-441v192h-129q-3 1 -8 2t-18 5.5t-24 11.5q-51 31 -51 92v164q3 26 17 51.5t37 39
t52 13.5h124v157h441v-157h125v-379h-125v-192zM359 50h412v191h125v351h-125v157h-412v-157h-8h-14h-44q-34 0 -73 -1q-51 0 -76 -44q-6 -10 -9.5 -21t-4.5 -16t-2 -9v-163q0 -53 44 -80q21 -13 44 -16l143 -1v-191z" />
    <glyph glyph-name="uniE613" unicode="&#xe613;" 
d="M433 666q19 0 32.5 -13.5t13.5 -31.5v-525q0 -12 -6.5 -22.5t-16.5 -16.5t-23 -6h-208q-10 0 -18 3.5t-14 9.5t-10 14.5t-4 17.5v525q0 18 13.5 31.5t32.5 13.5h208zM433 680h-208q-25 0 -42.5 -17.5t-17.5 -41.5v-525q0 -24 17.5 -41.5t42.5 -17.5h208q12 0 23 4.5
t19 12.5t13 19t5 23v525q0 24 -17.5 41.5t-42.5 17.5zM866 656v-135h-299v135h299zM881 671h-329v-165h329v165zM866 427v-74h-299v74h299zM881 441h-329v-102h329v102zM552 264h321v-14h-321v14zM552 194h314v-14h-314v14zM874 52h-15v48h-300v-48h-14v62h329v-62zM864 764
l4 -14l-305 -94l-4 13z" />
    <glyph glyph-name="uniE614" unicode="&#xe614;" 
d="M244.5 731q33.5 0 57.5 -23.5t24 -57.5v-519q0 -22 -11 -41t-29.5 -30t-40.5 -11q-34 0 -57.5 24t-23.5 58v519q0 34 23.5 57.5t57 23.5zM245 746q-40 0 -68 -28t-28 -68v-519q0 -40 28 -68t67.5 -28t67.5 28t28 68v519q0 40 -28 68t-67 28zM765 735q15 0 29.5 -4.5
t26.5 -13.5t21 -21t13.5 -26.5t4.5 -29.5v-496q0 -40 -28 -68t-67 -28h-371v687h371zM765 750h-385v-717h385q45 0 77.5 32.5t32.5 78.5v496q0 45 -32.5 77.5t-77.5 32.5zM780 608v-161h-281v161h281zM795 623h-310v-190h310v190zM505 333h65v-15h-65v15zM597 333h65v-15
h-65v15zM699 333h65v-15h-65v15zM505 288h65v-14h-65v14zM597 288h65v-14h-65v14zM699 288h65v-14h-65v14zM505 245h65v-14h-65v14zM597 245h65v-14h-65v14zM699 245h65v-14h-65v14z" />
    <glyph glyph-name="uniE615" unicode="&#xe615;" 
d="M910 116h-685q-22 0 -42.5 8.5t-35.5 23.5t-24 36t-9 43v156q0 47 32.5 79.5t78.5 32.5h131v-14h-131q-40 0 -68.5 -28.5t-28.5 -69.5v-156q0 -40 28.5 -68.5t68.5 -28.5h671v351h-123v14h137v-379zM764 631v-194h-398v194h398zM778 645h-427v-222h427v222zM457 597h201
v-14h-201v14zM457 548h201v-14h-201v14zM427 350h56v-14h-56v14zM532 350h56v-14h-56v14zM636 350h56v-14h-56v14zM427 300h56v-15h-56v15zM532 300h56v-15h-56v15zM636 300h56v-15h-56v15zM427 248h56v-14h-56v14zM532 248h56v-14h-56v14zM636 248h56v-14h-56v14z" />
    <glyph glyph-name="uniE616" unicode="&#xe616;" 
d="M354 751q33 0 64 -7l477 -238l-132 -153l-186 23l-363 242q-3 30 3 53.5t21 39.5q19 22 50.5 31t65.5 9zM354 765q-24 0 -45 -3.5t-44 -13.5t-38 -26.5t-23 -45.5t-4 -66l371 -248l198 -25l149 174l-495 247q-31 7 -69 7zM584 369l-11 9l140 167l189 -27l-2 -14l-181 26z
M425 458l101 -67l30 -117l-357 -194l-7 -4v-9v-19h-71v271h71v-85v-20l19 6l199 67l10 3v10zM412 484l-6 -184l-200 -66v100h-100v-300h100v33l366 200l-33 133zM734 469l49 -8l-32 -38l-52 6zM729 485l-59 -68l87 -9l54 64z" />
  </font>
</defs>
</svg>
